<?xml version="1.0" encoding="utf-8"?><svg xmlns="http://www.w3.org/2000/svg" xmlns:xlink="http://www.w3.org/1999/xlink"><symbol viewBox="0 0 24 25" id="arrow-top" xmlns="http://www.w3.org/2000/svg"><path d="M13.06.94a1.5 1.5 0 00-2.12 0l-9.547 9.545a1.5 1.5 0 102.122 2.122L12 4.12l8.485 8.486a1.5 1.5 0 102.122-2.122L13.06.94zM13.5 25V2h-3v23h3z"/></symbol><symbol viewBox="0 0 35 30" id="basket" xmlns="http://www.w3.org/2000/svg"><path d="M1 2h6.133c.552 0 1 .449 1 1 0 .086-.126-1.084 1.906 17.208A3.004 3.004 0 008.133 23c0 1.654 1.346 3 3 3h1.172a3.003 3.003 0 002.828 4 3.003 3.003 0 002.828-4h6.345a2.96 2.96 0 00-.173 1c0 1.654 1.346 3 3 3 1.655 0 3-1.346 3-3s-1.345-3-3-3h-16c-.551 0-1-.449-1-1 0-.551.449-1 1-1H29.44a2.99 2.99 0 002.96-2.507l1.72-10.329A1 1 0 0033.134 8h-3V3a1 1 0 00-1-1h-8a1 1 0 00-1 1v1h-5a1 1 0 00-1 1v3h-3.438l-.562-5.06a3.004 3.004 0 00-3-2.94H1a1 1 0 100 2zm15.133 25c0 .551-.448 1-1 1a1.001 1.001 0 010-2c.552 0 1 .449 1 1zm11 1a1 1 0 110-2 1 1 0 010 2zm-5-24h6v4h-6V4zm-6 2h4v2h-4V6zm15.82 4l-1.527 9.164a.997.997 0 01-.987.836h-17.41l-1.112-10h21.036z"/><path d="M15.133 18a1 1 0 001-1v-4a1 1 0 10-2 0v4a1 1 0 001 1zm6 0a1 1 0 001-1v-4a1 1 0 10-2 0v4a1 1 0 001 1zm6 0a1 1 0 001-1v-4a1 1 0 10-2 0v4a1 1 0 001 1z"/></symbol><symbol viewBox="0 0 90 52" id="basketOK" xmlns="http://www.w3.org/2000/svg"><path d="M26.23 31.2c.957 0 1.733-.776 1.733-1.733v-6.934a1.733 1.733 0 10-3.467 0v6.934c0 .957.776 1.733 1.733 1.733zm10.4 0c.957 0 1.733-.776 1.733-1.733v-6.934a1.733 1.733 0 10-3.466 0v6.934c0 .957.775 1.733 1.733 1.733zm10.4 0c.958 0 1.733-.776 1.733-1.733v-6.934a1.733 1.733 0 10-3.466 0v6.934c0 .957.776 1.733 1.733 1.733zM52 26.689L66.276 41 88 18"/><path fill-rule="evenodd" clip-rule="evenodd" d="M12.364 3.467H1.734a1.733 1.733 0 110-3.467h10.63a5.207 5.207 0 015.2 5.094l.974 8.773h5.96v-5.2c0-.958.776-1.734 1.733-1.734h8.667V5.2c0-.957.776-1.733 1.733-1.733h13.867c.957 0 1.733.776 1.733 1.733v8.667h5.2a1.734 1.734 0 011.71 2.018l-1.802 10.81-3.01-3.031 1.056-6.33H18.923l1.926 17.333h30.179c.795 0 1.475-.532 1.675-1.288l2.56 2.579a5.184 5.184 0 01-4.235 2.175h-31.73c-.956 0-1.734.778-1.734 1.734 0 .955.778 1.733 1.734 1.733H47.03c2.867 0 5.2 2.333 5.2 5.2s-2.333 5.2-5.2 5.2a5.206 5.206 0 01-5.2-5.2c0-.608.106-1.192.298-1.735H31.133A5.206 5.206 0 0126.231 52a5.206 5.206 0 01-4.902-6.935h-2.031a5.205 5.205 0 01-5.2-5.198 5.207 5.207 0 013.303-4.84c-3.307-29.77-3.316-29.8-3.305-29.816a1.736 1.736 0 00-1.732-1.745zm13.867 45.066a1.734 1.734 0 000-3.468 1.734 1.734 0 000 3.468zM45.298 46.8c0 .956.777 1.733 1.733 1.733.956 0 1.733-.777 1.733-1.733a1.734 1.734 0 00-3.467 0zm3.466-39.867h-10.4v6.934h10.4V6.933zM34.898 10.4h-6.934v3.467h6.934V10.4z"/></symbol><symbol viewBox="0 0 17 17" id="calendar" xmlns="http://www.w3.org/2000/svg"><path d="M6.006 9.379a.386.386 0 00-.386-.386H4.274a.386.386 0 00-.386.386v1.346c0 .213.173.386.386.386H5.62a.386.386 0 00.386-.386V9.38zm3.364 0a.386.386 0 00-.386-.386H7.638a.386.386 0 00-.386.386v1.346c0 .213.173.386.386.386h1.346a.386.386 0 00.386-.386V9.38zm3.366 0a.386.386 0 00-.386-.386h-1.346a.386.386 0 00-.386.386v1.346c0 .213.173.386.386.386h1.346a.386.386 0 00.386-.386V9.38zm-6.73 3.365a.386.386 0 00-.386-.385H4.274a.386.386 0 00-.386.385v1.346c0 .213.173.386.386.386H5.62a.386.386 0 00.386-.386v-1.346zm3.364 0a.386.386 0 00-.386-.385H7.638a.386.386 0 00-.386.385v1.346c0 .213.173.386.386.386h1.346a.386.386 0 00.386-.386v-1.346zm3.366 0a.385.385 0 00-.385-.385h-1.347a.386.386 0 00-.386.385v1.346c0 .213.173.386.386.386h1.347a.386.386 0 00.385-.386v-1.346z"/><path d="M15.143 1.893v2.056a1.68 1.68 0 01-1.683 1.679h-1.062c-.93 0-1.693-.75-1.693-1.679V1.886H5.918v2.063c0 .93-.764 1.679-1.693 1.679H3.163A1.68 1.68 0 011.48 3.949V1.893A1.53 1.53 0 000 3.416v12.051A1.53 1.53 0 001.524 17h13.575c.84 0 1.524-.693 1.524-1.533V3.416a1.53 1.53 0 00-1.48-1.523zm-.493 12.824a.659.659 0 01-.659.659H2.604a.659.659 0 01-.66-.66V8.493a.66.66 0 01.66-.66H13.99a.66.66 0 01.66.66v6.225z"/><path d="M3.16 4.525h1.05a.577.577 0 00.577-.577V.578A.577.577 0 004.21 0H3.16a.577.577 0 00-.578.577v3.371c0 .32.259.577.578.577zm9.225 0h1.05a.577.577 0 00.577-.577V.578A.577.577 0 0013.435 0h-1.05a.577.577 0 00-.578.577v3.371c0 .32.259.577.578.577z"/></symbol><symbol viewBox="0 0 10 10" id="cansel" xmlns="http://www.w3.org/2000/svg"><path d="M5.744 5.001L9.846.899a.526.526 0 10-.744-.744L5 4.257.898.155A.526.526 0 10.154.9l4.102 4.102-4.102 4.1a.526.526 0 10.744.745L5 5.745l4.101 4.102a.526.526 0 00.745-.745L5.744 5.001z"/></symbol><symbol viewBox="0 0 60 60" id="car" xmlns="http://www.w3.org/2000/svg"><path d="M55.8 27.113l-1.554-6.215a.94.94 0 00.743-.919v-1.002a3.95 3.95 0 00-3.945-3.946h-7.077v-2.067c0-1.07-.871-1.941-1.942-1.941H5.95c-1.07 0-1.942.87-1.942 1.941V30a.94.94 0 001.88 0V12.964c0-.034.027-.062.062-.062h36.075c.035 0 .063.028.063.062V30a.94.94 0 001.879 0v-1.065h11.087a3.076 3.076 0 012.92 2.13h-2.922a.94.94 0 00-.94.94v2.003a2.947 2.947 0 002.944 2.944h1.065v4.134h-2.457a5.96 5.96 0 00-5.623-4.009 5.96 5.96 0 00-5.622 4.009h-.453v-7.078a.94.94 0 00-1.879 0v7.077H22.596a5.96 5.96 0 00-5.623-4.008 5.96 5.96 0 00-5.623 4.008h-5.4a.063.063 0 01-.063-.062v-2.067h4.071a.94.94 0 000-1.88H.94a.94.94 0 000 1.88h3.07v2.067c0 1.07.87 1.941 1.941 1.941h5.075l-.002.063c0 3.28 2.67 5.95 5.95 5.95 3.28 0 5.95-2.67 5.95-5.95l-.002-.063h21.172l-.001.063c0 3.28 2.669 5.95 5.95 5.95 3.28 0 5.95-2.67 5.95-5.95l-.002-.063h3.07a.94.94 0 00.94-.94v-10.02a4.955 4.955 0 00-4.2-4.891zM43.967 16.91h7.077a2.07 2.07 0 012.067 2.067v.063h-9.144v-2.13zm0 10.146V20.92h8.348l1.534 6.137h-9.882zM16.973 47.098a4.076 4.076 0 01-4.071-4.07 4.075 4.075 0 014.07-4.072 4.075 4.075 0 014.072 4.071 4.076 4.076 0 01-4.071 4.071zm33.069 0a4.076 4.076 0 01-4.071-4.07 4.075 4.075 0 014.07-4.072 4.075 4.075 0 014.072 4.071 4.076 4.076 0 01-4.071 4.071zm8.08-12.025h-1.066a1.066 1.066 0 01-1.064-1.065v-1.065h2.129v2.13z"/><path d="M16.973 41.086c-1.07 0-1.942.87-1.942 1.941 0 1.07.871 1.942 1.942 1.942 1.07 0 1.941-.871 1.941-1.942 0-1.07-.87-1.941-1.941-1.941zm33.069 0c-1.071 0-1.942.87-1.942 1.941 0 1.07.871 1.942 1.942 1.942 1.07 0 1.941-.871 1.941-1.942 0-1.07-.87-1.941-1.941-1.941zm-11.023-4.009h-14.03a.94.94 0 000 1.88h14.03a.94.94 0 000-1.88zm-24.05-4.008H2.944a.94.94 0 000 1.879h12.025a.94.94 0 000-1.879zm17.7-12.752a.94.94 0 00-1.329 0l-8.355 8.354-4.346-4.346a.94.94 0 10-1.328 1.329l5.01 5.01a.936.936 0 001.329 0l9.019-9.019a.94.94 0 000-1.328z"/></symbol><symbol viewBox="0 0 26 23" id="cart" xmlns="http://www.w3.org/2000/svg"><path d="M.735 1.81H5.24c.405 0 .734.33.734.733 0 .064-.093-.795 1.4 12.62a2.203 2.203 0 00-1.4 2.047c0 1.213.989 2.2 2.204 2.2h.86a2.204 2.204 0 104.28.734 2.19 2.19 0 00-.125-.735h4.66a2.204 2.204 0 104.28.734c0-1.213-.988-2.2-2.203-2.2H8.178a.735.735 0 01-.735-.733c0-.404.33-.733.735-.733h13.446a2.195 2.195 0 002.173-1.839l1.265-7.574a.733.733 0 00-.725-.854h-2.203V2.543a.734.734 0 00-.735-.733h-5.876a.734.734 0 00-.734.733v.734h-3.673a.734.734 0 00-.735.733v2.2H7.856l-.413-3.711A2.205 2.205 0 005.24.343H.735a.734.734 0 100 1.467zM11.85 20.143a.735.735 0 11-1.47-.003.735.735 0 011.47.003zm8.08.734a.734.734 0 110-1.465.734.734 0 010 1.465zm-3.672-17.6h4.407V6.21h-4.407V3.277zM11.85 4.743h2.939V6.21H11.85V4.743zm11.62 2.934l-1.122 6.72a.732.732 0 01-.724.613H8.835L8.02 7.677h15.45z"/><path d="M11.116 13.543a.734.734 0 00.734-.733V9.877a.734.734 0 00-1.469 0v2.933c0 .405.33.733.735.733zm4.407 0a.734.734 0 00.735-.733V9.877a.734.734 0 00-1.47 0v2.933c0 .405.33.733.735.733zm4.407 0a.734.734 0 00.735-.733V9.877a.734.734 0 00-1.47 0v2.933c0 .405.33.733.735.733z"/></symbol><symbol viewBox="0 0 10 10" id="close" xmlns="http://www.w3.org/2000/svg"><path d="M5.744 5L9.846.898a.526.526 0 10-.744-.744L5 4.256.898.154a.526.526 0 10-.744.744L4.256 5 .154 9.102a.526.526 0 10.744.744L5 5.744l4.101 4.102a.526.526 0 00.745-.744L5.744 5z"/></symbol><symbol viewBox="0 0 10 6" id="d" xmlns="http://www.w3.org/2000/svg"><path d="M5.39 5.837l4.45-4.545A.56.56 0 0010 .897a.56.56 0 00-.16-.395L9.513.167a.54.54 0 00-.774 0L5.002 3.984 1.262.164a.538.538 0 00-.775 0L.16.497A.56.56 0 000 .893c0 .15.057.29.16.395l4.454 4.55A.538.538 0 005.002 6a.538.538 0 00.388-.163z"/></symbol><symbol viewBox="0 0 16 9" id="down" xmlns="http://www.w3.org/2000/svg"><path d="M8.624 8.756l7.12-6.818a.814.814 0 000-1.185L15.22.251a.904.904 0 00-1.238 0L8.003 5.976 2.018.245A.89.89 0 001.398 0 .89.89 0 00.78.245L.256.747a.814.814 0 000 1.185l7.126 6.824a.89.89 0 00.62.244.89.89 0 00.622-.244z"/></symbol><symbol viewBox="0 0 17 17" id="download" xmlns="http://www.w3.org/2000/svg"><path d="M15.87 2.865a3.838 3.838 0 00-2.732-1.132 3.838 3.838 0 00-2.732 1.132l-6.09 6.09a2.32 2.32 0 000 3.278 2.32 2.32 0 003.278 0l4.01-4.01a.773.773 0 10-1.092-1.093l-4.01 4.01a.774.774 0 01-1.093-1.092l6.09-6.09a2.303 2.303 0 011.64-.68 2.32 2.32 0 011.64 3.957L8.14 13.874a3.868 3.868 0 01-5.464 0 3.838 3.838 0 01-1.132-2.732c0-1.032.402-2.003 1.132-2.732l6.637-6.637A.773.773 0 108.22.68L1.584 7.316A5.373 5.373 0 000 11.14c0 1.444.563 2.803 1.584 3.824a5.39 5.39 0 003.825 1.582c1.385 0 2.77-.527 3.825-1.582L15.87 8.33a3.868 3.868 0 000-5.464z"/></symbol><symbol viewBox="0 0 13 13" id="eye" xmlns="http://www.w3.org/2000/svg"><path d="M12.952 6.346c-.102-.149-2.563-3.638-6.452-3.638-3.337 0-6.31 3.47-6.436 3.617a.27.27 0 000 .35c.125.148 3.099 3.617 6.436 3.617 3.337 0 6.311-3.47 6.436-3.617a.272.272 0 00.016-.33zM6.5 8.666A2.169 2.169 0 014.334 6.5c0-1.195.971-2.167 2.166-2.167A2.17 2.17 0 018.667 6.5 2.169 2.169 0 016.5 8.667z"/></symbol><symbol viewBox="0 0 24 24" id="facebook" xmlns="http://www.w3.org/2000/svg"><path d="M15.997 3.985h2.191V.169C17.81.117 16.51 0 14.996 0c-3.159 0-5.323 1.987-5.323 5.639V9H6.187v4.266h3.486V24h4.274V13.267h3.345l.531-4.266h-3.877V6.062c.001-1.233.333-2.077 2.051-2.077z"/></symbol><symbol viewBox="0 0 41 35" id="garant" xmlns="http://www.w3.org/2000/svg"><path d="M39.119 3.276L31.984.303a3.224 3.224 0 00-2.463 0L26.095 1.73a.6.6 0 00.462 1.109l3.426-1.427a2.015 2.015 0 011.539 0l7.135 2.972c.694.29 1.142.94 1.142 1.658v25.685c0 1-.858 1.812-1.912 1.812h-.974a.6.6 0 100 1.201h.974c1.716 0 3.113-1.351 3.113-3.013V6.043c0-1.204-.738-2.29-1.881-2.766z"/><path d="M28.358 27v-1.904H27.14v-.91h1.218V22.94H27.14v-1.064h1.218v-4.872h2.632c1.223 0 2.128.247 2.716.742.597.495.896 1.213.896 2.156 0 .952-.322 1.699-.966 2.24-.644.532-1.591.798-2.842.798h-1.176v1.246h2.31v.91h-2.31V27h-1.26zm2.254-5.124c.85 0 1.507-.14 1.974-.42.476-.28.714-.784.714-1.512 0-.635-.196-1.106-.588-1.414-.392-.308-1.003-.462-1.834-.462h-1.26v3.808h.994z"/><path d="M34.295 33.539H24.204a2.568 2.568 0 00.643-1.706 2.57 2.57 0 00-.609-1.662c.24-.122.46-.282.656-.477a2.567 2.567 0 00.757-1.827c0-.658-.248-1.259-.654-1.715a2.59 2.59 0 001.313-2.25c0-.657-.246-1.256-.65-1.712a2.57 2.57 0 001.322-2.255 2.587 2.587 0 00-2.584-2.584h-2.693V6.042c0-.717.449-1.368 1.142-1.658l1.092-.455a.6.6 0 10-.461-1.108l-1.093.455c-1.143.476-1.881 1.562-1.881 2.766v11.31h-2.51c.836-2.642.765-5.397-.21-8.596A2.344 2.344 0 0015.536 7.1c-.652 0-1.258.26-1.707.732a2.33 2.33 0 00-.643 1.742c.188 3.611-1.478 4.854-3.783 6.575-.76.566-1.589 1.185-2.404 1.945v-.787a.6.6 0 00-.6-.6H.6a.6.6 0 00-.601.6V34.34a.6.6 0 00.6.601h5.798a.6.6 0 00.6-.6V32.83c1.142.108 1.975.335 2.784.956a3.051 3.051 0 001.845.631h10.592c.432.211.912.323 1.398.323h10.678a.6.6 0 100-1.201zm-23.782-.707c-1.133-.867-2.343-1.109-3.514-1.21V24.61a.6.6 0 10-1.201 0v9.13H1.2V17.909h4.597v4.084a.6.6 0 101.2 0V19.8c1.005-1.108 2.081-1.911 3.123-2.689 2.307-1.721 4.486-3.347 4.265-7.6a1.14 1.14 0 01.315-.852c.22-.23.516-.358.835-.358a1.15 1.15 0 011.1.806c.992 3.258.977 6-.05 8.626a.6.6 0 00.56.82h7.252a1.384 1.384 0 01.978 2.36c-.262.26-.609.405-.978.405H21.93a.6.6 0 100 1.2h1.795a1.384 1.384 0 01.978 2.361 1.374 1.374 0 01-.978.405H21.93a.6.6 0 100 1.201h1.136a1.384 1.384 0 010 2.765h-1.795a.6.6 0 100 1.201h.991a1.384 1.384 0 01.978 2.36 1.457 1.457 0 01-.917.404l-10.698.002a1.84 1.84 0 01-1.113-.385zM32.92 6.31a2.291 2.291 0 00-2.29-2.29 2.291 2.291 0 00-2.288 2.29 2.291 2.291 0 002.289 2.288 2.291 2.291 0 002.288-2.289zm-3.377 0a1.089 1.089 0 111.088 1.088 1.09 1.09 0 01-1.088-1.089z"/></symbol><symbol viewBox="0 0 511 511.9" id="instagram" xmlns="http://www.w3.org/2000/svg"><path d="M510.95 150.5c-1.2-27.2-5.598-45.898-11.9-62.102-6.5-17.199-16.5-32.597-29.6-45.398-12.802-13-28.302-23.102-45.302-29.5-16.296-6.3-34.898-10.7-62.097-11.898C334.648.3 325.949 0 256.449 0s-78.199.3-105.5 1.5c-27.199 1.2-45.898 5.602-62.097 11.898-17.204 6.5-32.602 16.5-45.403 29.602-13 12.8-23.097 28.3-29.5 45.3-6.3 16.302-10.699 34.9-11.898 62.098C.75 177.801.449 186.5.449 256s.301 78.2 1.5 105.5c1.2 27.2 5.602 45.898 11.903 62.102 6.5 17.199 16.597 32.597 29.597 45.398 12.801 13 28.301 23.102 45.301 29.5 16.3 6.3 34.898 10.7 62.102 11.898 27.296 1.204 36 1.5 105.5 1.5s78.199-.296 105.5-1.5c27.199-1.199 45.898-5.597 62.097-11.898a130.934 130.934 0 0074.903-74.898c6.296-16.301 10.699-34.903 11.898-62.102 1.2-27.3 1.5-36 1.5-105.5s-.102-78.2-1.3-105.5zm-46.098 209c-1.102 25-5.301 38.5-8.801 47.5-8.602 22.3-26.301 40-48.602 48.602-9 3.5-22.597 7.699-47.5 8.796-27 1.204-35.097 1.5-103.398 1.5s-76.5-.296-103.403-1.5c-25-1.097-38.5-5.296-47.5-8.796C94.551 451.5 84.45 445 76.25 436.5c-8.5-8.3-15-18.3-19.102-29.398-3.5-9-7.699-22.602-8.796-47.5-1.204-27-1.5-35.102-1.5-103.403s.296-76.5 1.5-103.398c1.097-25 5.296-38.5 8.796-47.5C61.25 94.199 67.75 84.1 76.352 75.898c8.296-8.5 18.296-15 29.398-19.097 9-3.5 22.602-7.7 47.5-8.801 27-1.2 35.102-1.5 103.398-1.5 68.403 0 76.5.3 103.403 1.5 25 1.102 38.5 5.3 47.5 8.8 11.097 4.098 21.199 10.598 29.398 19.098 8.5 8.301 15 18.301 19.102 29.403 3.5 9 7.699 22.597 8.8 47.5 1.2 27 1.5 35.097 1.5 103.398s-.3 76.301-1.5 103.301zm0 0"/><path d="M256.45 124.5c-72.598 0-131.5 58.898-131.5 131.5s58.902 131.5 131.5 131.5c72.6 0 131.5-58.898 131.5-131.5s-58.9-131.5-131.5-131.5zm0 216.8c-47.098 0-85.302-38.198-85.302-85.3s38.204-85.3 85.301-85.3c47.102 0 85.301 38.198 85.301 85.3s-38.2 85.3-85.3 85.3zm167.402-222c0 16.954-13.747 30.7-30.704 30.7-16.953 0-30.699-13.746-30.699-30.7 0-16.956 13.746-30.698 30.7-30.698 16.956 0 30.703 13.742 30.703 30.699zm0 0"/></symbol><symbol viewBox="0 0 9 15" id="left" xmlns="http://www.w3.org/2000/svg"><path d="M.244 8.085l6.818 6.675a.84.84 0 00.592.24.841.841 0 00.593-.24l.502-.491a.81.81 0 000-1.16L3.024 7.502l5.731-5.611a.807.807 0 000-1.161L8.253.24A.841.841 0 007.661 0a.84.84 0 00-.593.24L.244 6.92A.807.807 0 000 7.504c0 .22.086.427.244.582z"/></symbol><symbol viewBox="0 0 13 10" id="mail" xmlns="http://www.w3.org/2000/svg"><path d="M11.857 0H1.143A1.15 1.15 0 000 1.154v7.692A1.15 1.15 0 001.143 10h10.714A1.15 1.15 0 0013 8.846V1.154A1.15 1.15 0 0011.857 0zM11.7.77L6.524 5.995 1.304.769H11.7zM.762 8.686V1.309L4.43 4.982.762 8.687zm.538.544l3.671-3.707 1.286 1.288c.15.149.39.148.538-.002l1.254-1.266 3.65 3.687H1.3zm10.938-.544L8.588 5l3.65-3.687v7.374z"/></symbol><symbol viewBox="0 0 15 15" id="map" xmlns="http://www.w3.org/2000/svg"><path d="M7.5 0a5.63 5.63 0 00-5.625 5.625c0 3.9 5.077 9.022 5.293 9.238a.47.47 0 00.664 0c.215-.216 5.293-5.339 5.293-9.238A5.63 5.63 0 007.5 0zm0 13.853c-1.12-1.198-4.688-5.25-4.688-8.228A4.693 4.693 0 017.5.937a4.693 4.693 0 014.688 4.688c0 2.976-3.569 7.03-4.688 8.228z"/><path d="M7.5 2.813a2.816 2.816 0 00-2.813 2.812A2.816 2.816 0 007.5 8.438a2.816 2.816 0 002.813-2.813A2.816 2.816 0 007.5 2.812zm0 4.687a1.877 1.877 0 01-1.875-1.875c0-1.034.84-1.875 1.875-1.875 1.034 0 1.875.84 1.875 1.875 0 1.034-.84 1.875-1.875 1.875z"/></symbol><symbol viewBox="0 0 15 16" id="men" xmlns="http://www.w3.org/2000/svg"><path d="M14.316 16a.694.694 0 00.684-.704v-3.221c0-2.465-1.94-4.472-4.33-4.493a4.546 4.546 0 001.198-3.088C11.868 2.016 9.908 0 7.5 0 5.091 0 3.132 2.016 3.132 4.494c0 1.195.456 2.282 1.199 3.088C1.939 7.602 0 9.61 0 12.075v3.222c0 .388.306.703.684.703h13.632zM7.5 1.407c1.654 0 3 1.385 3 3.087 0 1.702-1.346 3.087-3 3.087-1.655 0-3-1.385-3-3.087 0-1.702 1.346-3.087 3-3.087zM1.368 12.075c0-1.702 1.346-3.087 3-3.087h6.264c1.654 0 3 1.385 3 3.087v2.518h-2.5V13.4a.694.694 0 00-.684-.703.694.694 0 00-.684.703v1.192H5.236V13.4a.694.694 0 00-.684-.703.694.694 0 00-.683.703v1.192H1.368v-2.518z"/></symbol><symbol viewBox="0 0 24 24" id="odnoklassniki" xmlns="http://www.w3.org/2000/svg"><path d="M4.721 12.881c-.613 1.205.083 1.781 1.671 2.765 1.35.834 3.215 1.139 4.413 1.261l-4.721 4.541c-1.374 1.317.838 3.43 2.211 2.141l3.717-3.585c1.423 1.369 2.787 2.681 3.717 3.59 1.374 1.294 3.585-.801 2.226-2.141-.102-.097-5.037-4.831-4.736-4.541 1.213-.122 3.05-.445 4.384-1.261l-.001-.001c1.588-.989 2.284-1.564 1.68-2.769-.365-.684-1.349-1.256-2.659-.267 0 0-1.769 1.355-4.622 1.355-2.854 0-4.622-1.355-4.622-1.355-1.309-.994-2.297-.417-2.658.267z"/><path d="M11.999 12.142c3.478 0 6.318-2.718 6.318-6.064 0-3.36-2.84-6.078-6.318-6.078C8.52 0 5.68 2.718 5.68 6.078c0 3.346 2.84 6.064 6.319 6.064zm0-9.063c1.709 0 3.103 1.341 3.103 2.999 0 1.644-1.394 2.985-3.103 2.985S8.896 7.722 8.896 6.078c-.001-1.659 1.393-2.999 3.103-2.999z"/></symbol><symbol viewBox="0 0 18 18" id="phone" xmlns="http://www.w3.org/2000/svg"><g clip-path="url(#auclip0)"><path d="M14.226 11.15c-.369-.383-.813-.588-1.284-.588-.468 0-.916.201-1.3.585l-1.2 1.196c-.099-.053-.198-.102-.293-.152a4.938 4.938 0 01-.376-.201c-1.124-.714-2.146-1.645-3.126-2.85-.475-.6-.794-1.105-1.026-1.618.311-.285.6-.58.881-.866.107-.106.213-.216.32-.323.797-.798.797-1.83 0-2.629L5.783 2.667c-.118-.118-.24-.24-.353-.36a17.946 17.946 0 00-.714-.707c-.369-.365-.81-.559-1.273-.559-.463 0-.912.194-1.292.559l-.007.007L.853 2.91A2.78 2.78 0 00.03 4.677c-.091 1.11.235 2.143.486 2.819.615 1.66 1.535 3.199 2.906 4.847a17.88 17.88 0 005.953 4.662c.874.414 2.04.904 3.343.988.08.003.164.007.24.007.877 0 1.614-.315 2.192-.942.004-.008.011-.011.015-.02.198-.238.425-.455.665-.687.163-.155.33-.319.494-.49.376-.391.573-.847.573-1.314 0-.471-.201-.923-.585-1.303l-2.085-2.094zm1.36 4c-.004 0-.004.005 0 0-.148.16-.3.305-.464.464a10.22 10.22 0 00-.733.76c-.384.41-.836.604-1.428.604-.057 0-.118 0-.175-.004-1.128-.072-2.177-.512-2.963-.889a16.875 16.875 0 01-5.608-4.391C2.92 10.132 2.054 8.689 1.48 7.139c-.353-.946-.483-1.683-.426-2.378.038-.445.21-.813.525-1.129l1.295-1.295c.186-.175.384-.27.578-.27.239 0 .433.144.554.266l.012.011c.231.217.452.441.684.68.117.122.239.243.36.369L6.1 4.43c.402.403.402.775 0 1.178-.11.11-.217.22-.327.326-.32.327-.623.631-.954.927-.007.008-.015.012-.019.02-.326.326-.266.645-.197.862l.011.034c.27.653.65 1.269 1.227 2.002l.004.004c1.049 1.292 2.154 2.298 3.374 3.07.155.098.315.178.467.254.137.068.266.133.376.201.015.008.03.02.046.027.129.064.25.095.376.095.315 0 .512-.198.577-.262l1.3-1.3c.128-.129.334-.284.573-.284.236 0 .43.148.547.277l.008.007 2.093 2.094c.391.387.391.786.004 1.189zM9.728 4.282c.995.167 1.9.638 2.62 1.36a4.842 4.842 0 011.361 2.621.51.51 0 00.505.426c.03 0 .057-.004.088-.008a.513.513 0 00.421-.593 5.86 5.86 0 00-1.645-3.172 5.86 5.86 0 00-3.172-1.645.516.516 0 00-.592.418.507.507 0 00.414.593zM17.98 7.94a9.64 9.64 0 00-2.71-5.223 9.64 9.64 0 00-5.223-2.71.511.511 0 10-.167 1.011c1.77.3 3.384 1.14 4.669 2.42a8.606 8.606 0 012.42 4.67.51.51 0 00.505.425c.03 0 .057-.004.087-.008a.503.503 0 00.418-.585z"/></g><defs><clipPath id="auclip0"><path d="M0 0h18v18H0z"/></clipPath></defs></symbol><symbol viewBox="0 0 973.1 973.1" id="qw" xmlns="http://www.w3.org/2000/svg"><path d="M502.29 788.199h-47c-33.1 0-60 26.9-60 60v64.9c0 33.1 26.9 60 60 60h47c33.101 0 60-26.9 60-60v-64.9c0-33.199-26.899-60-60-60zM170.89 285.8l86.7 10.8c27.5 3.4 53.6-12.4 63.5-38.3 12.5-32.7 29.9-58.5 52.2-77.3 31.601-26.6 70.9-40 117.9-40 48.7 0 87.5 12.8 116.3 38.3 28.8 25.6 43.1 56.2 43.1 92.1 0 25.8-8.1 49.4-24.3 70.8-10.5 13.6-42.8 42.2-96.7 85.9-54 43.7-89.899 83.099-107.899 118.099-18.4 35.801-24.8 75.5-26.4 115.301-1.399 34.1 25.8 62.5 60 62.5h49c31.2 0 57-23.9 59.8-54.9 2-22.299 5.7-39.199 11.301-50.699 9.399-19.701 33.699-45.701 72.699-78.1C723.59 477.8 772.79 428.4 795.891 392c23-36.3 34.6-74.8 34.6-115.5 0-73.5-31.3-138-94-193.4-62.6-55.4-147-83.1-253-83.1-100.8 0-182.1 27.3-244.1 82-52.8 46.6-84.9 101.8-96.2 165.5-3.501 18.6 9.199 36 27.699 38.3z"/></symbol><symbol viewBox="0 0 8 13" id="r" xmlns="http://www.w3.org/2000/svg"><path d="M8 6.5L.5 12.13V.87L8 6.5z"/></symbol><symbol viewBox="0 0 9 15" id="right" xmlns="http://www.w3.org/2000/svg"><path d="M8.756 6.915L1.938.24A.84.84 0 001.346 0a.84.84 0 00-.593.24L.251.73a.81.81 0 000 1.16l5.725 5.606-5.731 5.611a.807.807 0 000 1.161l.502.491a.84.84 0 00.592.24.841.841 0 00.593-.24l6.824-6.68A.807.807 0 009 7.496a.807.807 0 00-.244-.582z"/></symbol><symbol viewBox="0 0 20 20" id="search" xmlns="http://www.w3.org/2000/svg"><path d="M8.808 0C3.95 0 0 3.895 0 8.681c0 4.787 3.951 8.682 8.808 8.682 4.856 0 8.807-3.895 8.807-8.682C17.615 3.895 13.665 0 8.808 0zm0 15.76c-3.96 0-7.182-3.176-7.182-7.079 0-3.903 3.222-7.078 7.182-7.078 3.96 0 7.181 3.175 7.181 7.078 0 3.903-3.222 7.079-7.181 7.079z"/><path d="M19.762 18.345L15.1 13.751a.82.82 0 00-1.15 0 .793.793 0 000 1.133l4.662 4.594a.816.816 0 00.575.235.816.816 0 00.575-.235.793.793 0 000-1.133z"/></symbol><symbol viewBox="0 0 13 8" id="t-down" xmlns="http://www.w3.org/2000/svg"><path d="M6.5 8L.87.5h11.26L6.5 8z"/></symbol><symbol viewBox="0 0 16 16" id="user" xmlns="http://www.w3.org/2000/svg"><path d="M14.412 15.657c.38 0 .689-.308.689-.688v-3.153a4.402 4.402 0 00-4.36-4.397 4.38 4.38 0 001.207-3.021A4.403 4.403 0 007.55 0a4.403 4.403 0 00-4.397 4.398c0 1.17.46 2.233 1.207 3.021A4.402 4.402 0 000 11.816v3.153c0 .38.308.688.688.688h13.724zM7.55 1.377a3.024 3.024 0 013.021 3.02 3.024 3.024 0 01-3.02 3.021 3.024 3.024 0 01-3.021-3.02 3.024 3.024 0 013.02-3.021zM1.377 11.816a3.024 3.024 0 013.02-3.02h6.306a3.024 3.024 0 013.02 3.02v2.464h-2.517v-1.166a.688.688 0 10-1.377 0v1.166H5.272v-1.166a.688.688 0 10-1.377 0v1.166H1.377v-2.464z"/></symbol><symbol viewBox="0 0 512 512" id="user-2" xmlns="http://www.w3.org/2000/svg"><path d="M238 .6c-1.9.2-7.8.9-13 1.4-33 3.6-69.5 16-99 33.6C88.5 58 58 88.5 35.6 126c-17.5 29.2-29.1 63.2-33.8 99-1.6 12.3-1.6 49.7 0 62 8.2 62.3 35.6 115 82 158.1 25.6 23.9 57.5 42.5 92.2 53.9 27.4 9.1 49.1 12.4 80 12.4 22.8 0 32.9-.9 53-5 68.9-14.1 130.4-58.3 167.4-120.4 17.5-29.2 29.1-63.2 33.8-99 1.6-12.3 1.6-49.7 0-62-4.7-35.8-16.3-69.8-33.8-99C454 88.5 423.5 58 386 35.6 357.1 18.3 322.6 6.5 288 2 279.2.8 244.2-.1 238 .6zM276.5 31c58.3 5.4 114.6 34.7 151.7 79 48.7 58.1 65.2 133.7 45.2 206.7-7.7 28.1-21.3 55-39.8 78.5-3.4 4.3-6.3 7.8-6.6 7.8-.3 0-1.9-4.3-3.5-9.6-8.5-28.4-28.3-58.9-51.2-79-14.4-12.6-34.1-24.7-51.8-31.9l-4-1.6 3.5-2.6c6.3-4.7 21.6-20.8 25.3-26.6 14.2-22.1 20.2-46 17.7-70.4-3.7-36.6-25.1-68.1-57.5-85-67.4-35-148.8 9.1-156.5 85-2 19.7 1.8 40.4 10.6 57.9 7.1 14.1 18.9 28.7 30.5 37.5 2.7 2 4.9 4 4.9 4.3 0 .3-3.3 1.8-7.3 3.4-27 10.9-54 32.1-72.9 57.1-10.9 14.5-21.3 34.9-26.4 52-1.5 5.2-3.1 9.5-3.4 9.5-.8 0-12.2-14.8-17.9-23.3-6.3-9.4-17.4-31-21.9-42.5-7.8-19.8-12.7-42.7-14.4-67.5-5.2-71.7 27.1-144.5 83.9-189.8C160.6 43.3 218.8 25.7 276.5 31zm.5 86c25.7 7.3 45.8 27.4 53.6 53.5 3.5 11.9 3.7 28.9.6 40.6-9.3 34.7-39.5 57.9-75.2 57.9s-65.9-23.2-75.2-57.9c-3.1-11.7-2.9-28.7.6-40.6 8.8-29.6 31.6-49.7 63.6-55.9 5.8-1.1 24.7.3 32 2.4zm-.5 185.1c31 4 58.4 17.8 82.1 41.4 17.8 17.8 29 35.8 36.2 58.5 2.6 8.1 6.7 27.1 5.9 27.5-.1.1-3.1 2.4-6.7 5.2-30.8 24-67.9 39.4-109.5 45.4-11.6 1.7-45.4 1.7-57 0-41.6-6-78.7-21.4-109.5-45.4-3.6-2.8-6.6-5.1-6.7-5.2-.2-.1.4-3.9 1.2-8.4 9.1-51.7 46.1-95 96.1-112.4 22.1-7.7 43.1-9.8 67.9-6.6z"/></symbol><symbol viewBox="0 0 24 24" id="vk" xmlns="http://www.w3.org/2000/svg"><path d="M19.915 13.028c-.388-.49-.277-.708 0-1.146.005-.005 3.208-4.431 3.538-5.932l.002-.001c.164-.547 0-.949-.793-.949h-2.624c-.668 0-.976.345-1.141.731 0 0-1.336 3.198-3.226 5.271-.61.599-.892.791-1.225.791-.164 0-.419-.192-.419-.739V5.949c0-.656-.187-.949-.74-.949H9.161c-.419 0-.668.306-.668.591 0 .622.945.765 1.043 2.515v3.797c0 .832-.151.985-.486.985-.892 0-3.057-3.211-4.34-6.886-.259-.713-.512-1.001-1.185-1.001H.9c-.749 0-.9.345-.9.731 0 .682.892 4.073 4.148 8.553C6.318 17.343 9.374 19 12.154 19c1.671 0 1.875-.368 1.875-1.001 0-2.922-.151-3.198.686-3.198.388 0 1.056.192 2.616 1.667C19.114 18.217 19.407 19 20.405 19h2.624c.748 0 1.127-.368.909-1.094-.499-1.527-3.871-4.668-4.023-4.878z"/></symbol><symbol viewBox="0 0 13 13" id="x" xmlns="http://www.w3.org/2000/svg"><path d="M13 1.314L11.686 0 6.5 5.186 1.314 0 0 1.314 5.186 6.5 0 11.686 1.314 13 6.5 7.814 11.686 13 13 11.686 7.814 6.5 13 1.314z"/></symbol><symbol viewBox="0 0 90.677 90.677" id="youtube-logotype" xmlns="http://www.w3.org/2000/svg"><path d="M82.287 45.907c-.937-4.071-4.267-7.074-8.275-7.521-9.489-1.06-19.098-1.065-28.66-1.06-9.566-.005-19.173 0-28.665 1.06-4.006.448-7.334 3.451-8.27 7.521-1.334 5.797-1.35 12.125-1.35 18.094 0 5.969 0 12.296 1.334 18.093.936 4.07 4.264 7.073 8.272 7.521 9.49 1.061 19.097 1.065 28.662 1.061 9.566.005 19.171 0 28.664-1.061 4.006-.448 7.336-3.451 8.272-7.521 1.333-5.797 1.34-12.124 1.34-18.093-.001-5.97.009-12.297-1.324-18.094zM28.9 50.4h-5.54v29.438h-5.146V50.4h-5.439v-4.822H28.9V50.4zm13.977 29.439h-4.629v-2.785c-1.839 2.108-3.585 3.136-5.286 3.136-1.491 0-2.517-.604-2.98-1.897-.252-.772-.408-1.994-.408-3.796V54.311h4.625v18.795c0 1.084 0 1.647.042 1.799.111.718.462 1.082 1.082 1.082.928 0 1.898-.715 2.924-2.166v-19.51h4.629l.001 25.528zm17.573-7.662c0 2.361-.159 4.062-.468 5.144-.618 1.899-1.855 2.869-3.695 2.869-1.646 0-3.234-.914-4.781-2.824v2.474h-4.625V45.578h4.625v11.189c1.494-1.839 3.08-2.769 4.781-2.769 1.84 0 3.078.969 3.695 2.88.311 1.027.468 2.715.468 5.132v10.167zm17.457-4.259h-9.251v4.525c0 2.363.773 3.543 2.363 3.543 1.139 0 1.802-.619 2.066-1.855.043-.251.104-1.279.104-3.134h4.719v.675c0 1.491-.057 2.518-.099 2.98a6.591 6.591 0 01-1.08 2.771c-1.281 1.854-3.179 2.768-5.595 2.768-2.42 0-4.262-.871-5.599-2.614-.981-1.278-1.485-3.29-1.485-6.003v-8.941c0-2.729.447-4.725 1.43-6.015 1.336-1.747 3.177-2.617 5.54-2.617 2.321 0 4.161.87 5.457 2.617.969 1.29 1.432 3.286 1.432 6.015v5.285h-.002z"/><path d="M70.978 58.163c-1.546 0-2.321 1.181-2.321 3.541v2.362h4.625v-2.362c-.001-2.36-.774-3.541-2.304-3.541zm-17.166 0c-.762 0-1.534.36-2.307 1.125v15.559c.772.774 1.545 1.14 2.307 1.14 1.334 0 2.012-1.14 2.012-3.445V61.646c0-2.302-.678-3.483-2.012-3.483zm2.584-23.19c1.705 0 3.479-1.036 5.34-3.168v2.814h4.675V8.82h-4.675v19.718c-1.036 1.464-2.018 2.188-2.953 2.188-.626 0-.994-.37-1.096-1.095-.057-.153-.057-.722-.057-1.817V8.82h-4.66v20.4c0 1.822.156 3.055.414 3.836.47 1.307 1.507 1.917 3.012 1.917zM23.851 20.598v14.021h5.184V20.598L35.271 0h-5.242l-3.537 13.595L22.812 0h-5.455c1.093 3.209 2.23 6.434 3.323 9.646 1.663 4.828 2.701 8.468 3.171 10.952zm18.368 14.375c2.342 0 4.162-.881 5.453-2.641.981-1.291 1.451-3.325 1.451-6.067v-9.034c0-2.758-.469-4.774-1.451-6.077-1.291-1.765-3.11-2.646-5.453-2.646-2.33 0-4.149.881-5.443 2.646-.993 1.303-1.463 3.319-1.463 6.077v9.034c0 2.742.47 4.776 1.463 6.067 1.293 1.76 3.113 2.641 5.443 2.641zm-2.231-18.679c0-2.387.724-3.577 2.231-3.577s2.229 1.189 2.229 3.577v10.852c0 2.387-.722 3.581-2.229 3.581-1.507 0-2.231-1.194-2.231-3.581V16.294z"/></symbol></svg>