<svg width="229" height="47" fill="none" xmlns="http://www.w3.org/2000/svg"><path d="M64.18 34.022h2.137c.99 0 1.707.145 2.147.434.443.288.664.745.664 1.368 0 .42-.108.77-.325 1.049-.217.28-.528.455-.935.527v.05c.505.094.876.283 1.113.566.24.279.359.658.359 1.137 0 .647-.227 1.154-.68 1.521-.45.365-1.076.547-1.88.547h-2.6v-7.199zm1.176 2.974h1.133c.492 0 .852-.077 1.078-.231.227-.158.34-.424.34-.798 0-.338-.123-.583-.37-.734-.242-.15-.63-.226-1.162-.226h-1.019v1.99zm0 .955v2.28h1.251c.492 0 .863-.093 1.113-.28.253-.191.38-.49.38-.897 0-.374-.129-.651-.385-.832-.256-.18-.645-.27-1.167-.27h-1.192zm10.761 1.103c0 .713-.232 1.253-.694 1.62-.46.365-1.136.547-2.03.547h-2.052v-7.199h1.176v2.925h.838c.899 0 1.583.18 2.053.542.472.36.709.883.709 1.565zm-3.6 1.187h.808c.525 0 .922-.093 1.191-.28.27-.191.404-.493.404-.907 0-.39-.13-.672-.389-.847-.256-.177-.692-.265-1.31-.265h-.704v2.299zm5.791.98h-1.182v-7.199h1.182v7.199zm7.27-2.167c0 1.445-.926 2.167-2.778 2.167h-2.092v-7.199H85.1v1.01h-3.215v1.915h.857c1.89 0 2.836.703 2.836 2.107zm-3.693 1.177h.846c.565 0 .979-.092 1.241-.276.263-.187.394-.487.394-.9 0-.398-.132-.683-.398-.858-.263-.177-.723-.265-1.38-.265h-.703v2.3zm12.021-2.62c0 1.172-.294 2.083-.882 2.733-.584.65-1.413.975-2.486.975-1.087 0-1.922-.322-2.506-.965-.581-.646-.872-1.564-.872-2.752 0-1.189.292-2.101.877-2.738.587-.637 1.424-.955 2.51-.955 1.07 0 1.898.323 2.483.97.584.646.876 1.557.876 2.732zm-5.495 0c0 .887.179 1.56.536 2.02.358.456.888.684 1.59.684.7 0 1.227-.227 1.581-.68.358-.453.537-1.127.537-2.024 0-.883-.177-1.552-.532-2.008-.35-.457-.876-.685-1.575-.685-.706 0-1.24.228-1.6.684-.358.457-.537 1.126-.537 2.01zm12.311-1.412c0 .751-.246 1.327-.738 1.728-.492.4-1.194.6-2.103.6h-.748v2.694h-1.177v-7.199h2.073c.9 0 1.572.184 2.019.552.449.367.674.909.674 1.625zm-3.59 1.339h.626c.604 0 1.047-.105 1.33-.315.282-.21.423-.539.423-.985 0-.414-.126-.722-.379-.926-.253-.203-.647-.305-1.182-.305h-.817v2.53zm14.131-3.516l-2.27 5.121c-.278.627-.535 1.082-.768 1.364a2.148 2.148 0 01-.812.615c-.305.132-.676.197-1.113.197-.381 0-.734-.049-1.058-.148v-1.058c.321.128.658.192 1.009.192.298 0 .548-.072.748-.217.204-.147.388-.412.552-.792l-2.654-5.274h1.27l1.758 3.61c.158.34.254.569.291.684h.049a2.75 2.75 0 01.148-.409l1.619-3.885h1.231zm4.522.906c-.676 0-1.208.24-1.595.72-.387.478-.581 1.14-.581 1.983 0 .883.185 1.551.556 2.005.375.452.915.679 1.62.679.306 0 .601-.03.887-.089.285-.062.582-.14.891-.236V41c-.565.213-1.205.32-1.92.32-1.054 0-1.863-.32-2.428-.956-.564-.64-.847-1.554-.847-2.743 0-.748.136-1.403.409-1.964a2.949 2.949 0 011.192-1.29c.518-.299 1.127-.448 1.826-.448.735 0 1.415.154 2.039.463l-.424.98a5.953 5.953 0 00-.773-.3 2.706 2.706 0 00-.852-.134zm9.368 6.292h-1.182v-6.188h-3.176v6.189h-1.177v-7.199h5.535v7.199zm6.476 0h-4.072v-7.198h4.072v.995h-2.895v1.96h2.713v.984h-2.713v2.26h2.895v1zm7.024-1.009h2.59v-6.189h1.191v7.199h-8.74v-7.199h1.177v6.19h2.59v-6.19h1.192v6.19zm11.868 1.009h-1.182v-3.244h-3.318v3.245h-1.177v-7.199h1.177v2.945h3.318v-2.945h1.182v7.199zm8.791-3.609c0 1.172-.294 2.083-.881 2.733-.585.65-1.414.975-2.487.975-1.086 0-1.922-.322-2.506-.965-.581-.646-.872-1.564-.872-2.752 0-1.189.292-2.101.877-2.738.587-.637 1.424-.955 2.511-.955 1.07 0 1.897.323 2.481.97.585.646.877 1.557.877 2.732zm-5.495 0c0 .887.179 1.56.537 2.02.358.456.888.684 1.59.684.699 0 1.226-.227 1.581-.68.358-.453.536-1.127.536-2.024 0-.883-.177-1.552-.531-2.008-.352-.457-.877-.685-1.576-.685-.706 0-1.239.228-1.6.684-.358.457-.537 1.126-.537 2.01zm11.819-3.589v1.01h-3.097v6.189h-1.177v-7.199h4.274zm8.067 3.589c0 1.172-.293 2.083-.881 2.733-.584.65-1.413.975-2.487.975-1.086 0-1.922-.322-2.506-.965-.581-.646-.871-1.564-.871-2.752 0-1.189.292-2.101.876-2.738.588-.637 1.425-.955 2.511-.955 1.07 0 1.898.323 2.482.97.584.646.876 1.557.876 2.732zm-5.495 0c0 .887.179 1.56.537 2.02.358.456.888.684 1.59.684.7 0 1.226-.227 1.581-.68.358-.453.537-1.127.537-2.024 0-.883-.178-1.552-.532-2.008-.351-.457-.877-.685-1.576-.685-.706 0-1.239.228-1.6.684-.358.457-.537 1.126-.537 2.01zm15.539 1.443c0 1.445-.926 2.167-2.777 2.167h-2.093v-7.199h4.392v1.01h-3.215v1.915h.857c1.891 0 2.836.703 2.836 2.107zm-3.693 1.177h.847c.565 0 .978-.092 1.241-.276.262-.187.394-.487.394-.9 0-.398-.133-.683-.399-.858-.263-.177-.722-.265-1.379-.265h-.704v2.3zm5.63-6.209h1.078v3.742c0 .391-.01.786-.029 1.187a48.2 48.2 0 01-.045.807h.045l3.678-5.736h1.374v7.199h-1.083v-3.713c0-.568.031-1.257.093-2.068h-.039l-3.693 5.78h-1.379v-7.198zm13.055 1.684c0 .47-.156.854-.468 1.152-.308.299-.737.49-1.285.572v.029c.63.075 1.109.263 1.438.561.331.296.497.683.497 1.162 0 .67-.262 1.194-.788 1.571-.522.378-1.244.566-2.166.566-.959 0-1.725-.13-2.299-.389v-1.029a4.73 4.73 0 001.068.35c.397.082.76.123 1.088.123 1.264 0 1.896-.414 1.896-1.24 0-.382-.191-.672-.571-.872-.378-.2-.939-.3-1.684-.3h-.867v-.946h.812c1.435 0 2.152-.383 2.152-1.147a.846.846 0 00-.369-.724c-.243-.177-.584-.266-1.024-.266-.348 0-.68.046-.995.138a3.742 3.742 0 00-.98.468l-.536-.798c.738-.512 1.608-.768 2.609-.768.762 0 1.364.162 1.807.487.443.325.665.758.665 1.3zm7.811 5.514h-1.181v-3.244h-3.319v3.245h-1.177v-7.199h1.177v2.945h3.319v-2.945h1.181v7.199zm6.472 0h-4.072v-7.198h4.072v.995h-2.895v1.96h2.713v.984h-2.713v2.26h2.895v1zm5.128-6.292c-.677 0-1.208.24-1.596.72-.387.478-.581 1.14-.581 1.983 0 .883.186 1.551.557 2.005.374.452.914.679 1.62.679.305 0 .6-.03.886-.089.285-.062.582-.14.891-.236V41c-.564.213-1.205.32-1.92.32-1.054 0-1.863-.32-2.428-.956-.564-.64-.847-1.554-.847-2.743 0-.748.137-1.403.409-1.964a2.949 2.949 0 011.192-1.29c.518-.299 1.127-.448 1.827-.448.735 0 1.414.154 2.038.463l-.424.98a5.897 5.897 0 00-.773-.3 2.704 2.704 0 00-.851-.134zm8.298 6.292l-.719-1.998h-2.752l-.704 1.999h-1.241l2.693-7.228h1.281l2.693 7.228h-1.251zm-1.029-3.013l-.674-1.96a14.034 14.034 0 01-.384-1.24c-.089.404-.219.845-.389 1.324l-.65 1.876h2.097z" fill="#fff"/><path d="M64.099 22.143V7.611h4.75c1.577 0 2.761.326 3.553.978.799.652 1.198 1.617 1.198 2.895 0 .678-.193 1.28-.579 1.806-.386.52-.911.922-1.577 1.208.785.22 1.404.639 1.857 1.257.459.612.688 1.344.688 2.196 0 1.304-.422 2.329-1.267 3.074-.845.745-2.04 1.118-3.583 1.118h-5.04zm1.916-6.797v5.23h3.164c.891 0 1.593-.23 2.106-.689.519-.465.778-1.104.778-1.916 0-1.75-.951-2.625-2.854-2.625h-3.194zm0-1.537h2.894c.839 0 1.507-.21 2.006-.629.506-.419.759-.988.759-1.706 0-.799-.233-1.378-.699-1.737-.465-.366-1.174-.549-2.126-.549h-2.834v4.621zm18.193 2.455h-3.414v5.879h-1.926V7.611h4.81c1.638 0 2.895.373 3.773 1.118.885.745 1.328 1.83 1.328 3.254 0 .904-.246 1.693-.739 2.365-.486.672-1.164 1.175-2.036 1.507l3.413 6.168v.12h-2.055l-3.154-5.879zm-3.414-1.567h2.945c.951 0 1.706-.246 2.265-.738.566-.492.849-1.151.849-1.976 0-.899-.27-1.587-.809-2.066-.532-.48-1.304-.722-2.316-.729h-2.934v5.51zm20.748 3.653h-6.088l-1.367 3.793H92.11l5.55-14.532h1.677l5.559 14.532h-1.966l-1.388-3.793zm-5.509-1.577h4.94l-2.475-6.796-2.465 6.796zm24.031 5.37h-1.926l-7.316-11.198v11.198h-1.926V7.611h1.926l7.336 11.248V7.611h1.906v14.532zm5.448 0V7.611h4.102c1.264 0 2.382.28 3.354.838a5.636 5.636 0 012.245 2.386c.533 1.031.802 2.216.809 3.553v.928c0 1.37-.267 2.572-.799 3.603a5.545 5.545 0 01-2.266 2.376c-.978.552-2.119.835-3.423.848h-4.022zm1.916-12.955v11.388h2.016c1.478 0 2.625-.46 3.444-1.377.825-.919 1.237-2.226 1.237-3.923v-.848c0-1.65-.389-2.931-1.168-3.843-.771-.918-1.869-1.384-3.293-1.397h-2.236z" fill="#BC0F00"/><path d="M155.521 18.296c0-.547-.196-.973-.586-1.278-.383-.305-1.061-.621-2.034-.948-.972-.326-1.767-.642-2.384-.947-2.009-.987-3.013-2.342-3.013-4.067 0-.859.248-1.615.745-2.267.504-.66 1.214-1.172 2.13-1.534.915-.369 1.944-.553 3.087-.553 1.114 0 2.111.199 2.991.596.888.398 1.576.965 2.066 1.703.489.731.734 1.569.734 2.513h-3.726c0-.632-.195-1.121-.586-1.47-.383-.347-.904-.52-1.564-.52-.668 0-1.196.148-1.587.446-.383.291-.574.664-.574 1.118 0 .398.212.76.638 1.086.426.32 1.175.653 2.247 1 1.071.341 1.951.71 2.64 1.108 1.675.965 2.512 2.296 2.512 3.992 0 1.356-.511 2.42-1.533 3.194-1.022.774-2.423 1.16-4.205 1.16-1.256 0-2.395-.223-3.417-.67-1.015-.454-1.782-1.072-2.3-1.853-.511-.788-.766-1.692-.766-2.714h3.747c0 .83.213 1.444.639 1.841.433.39 1.132.586 2.097.586.618 0 1.104-.131 1.459-.394.362-.27.543-.646.543-1.128zm16.356-2.449h-5.876v3.694h6.941v2.874h-10.678v-15.5h10.699V9.8h-6.962v3.268h5.876v2.779zm7.414 3.693h6.505v2.875h-10.242v-15.5h3.737V19.54zm18.784-3.693h-5.877v3.694h6.942v2.874h-10.678v-15.5h10.699V9.8h-6.963v3.268h5.877v2.779zm16.218 1.32c-.049 1.079-.34 2.033-.873 2.864-.532.823-1.281 1.462-2.246 1.916-.958.454-2.055.681-3.289.681-2.037 0-3.642-.663-4.813-1.99-1.171-1.328-1.756-3.201-1.756-5.622v-.766c0-1.519.263-2.846.788-3.982.532-1.142 1.295-2.023 2.289-2.64.993-.625 2.143-.937 3.449-.937 1.881 0 3.392.497 4.535 1.49 1.143.987 1.792 2.35 1.948 4.089h-3.726c-.028-.944-.266-1.622-.713-2.034-.447-.411-1.128-.617-2.044-.617-.93 0-1.611.348-2.044 1.043-.433.696-.66 1.806-.682 3.332v1.097c0 1.654.206 2.835.618 3.545.419.71 1.136 1.065 2.151 1.065.858 0 1.515-.203 1.969-.607.454-.405.695-1.047.724-1.927h3.715zM229 9.8h-4.652v12.615h-3.737V9.8h-4.567V6.915H229V9.8z" fill="#fff"/><path d="M18.797.612c-1.972.802-7.937 3.846-7.194 13.279 0 .052.019.12.041.2.123.446.348 1.26-2.013 1.745-.536.11-3.52 1.145-4.99 1.717l-.009.004c-.81.315-1.731.674-1.731-1.72 0-1.374.278-4.74 2.785-7.67-.117.115 2.204-2.404 3.597-3.32-.117.115-3.017 3.664-3.83 8.357-.059.343 0 1.144 1.393.686l1.044-.343.093-.03c.346-.105.804-.246.72-1-.052-.458.115-7.43 4.977-10.295.005 0 .08-.03.208-.08.728-.283 3.205-1.25 4.91-1.53z" fill="url(#paint0_radial)"/><path d="M13.692 2.215l-.012.007.012-.007z" fill="url(#paint1_radial)"/><path fill-rule="evenodd" clip-rule="evenodd" d="M33.26 2.265c-.443-.2-.893-.388-1.35-.562C28.302.647 21.825-.402 17.779 3.712c-2.764 2.808-3.09 5.928-2.474 8.578l.053.232c.37 1.606.98 4.262 2.805 4.853 1.329.429 2.83-.307 4.2-1.116l.336-.198.094-.043c.336-.148.813-.333 1.326-.486l.056-.017.05-.015c.543-.166 1.524-.464 1.923.07.055.072.11.147.167.224.199.27.423.572.737.96.945 1.17 1.927 2.358 3.616 3.706 1.666 1.33 3.997 2.503 6.478 2.817 2.613.33 4.82-.297 6.177-1.63 1.57-1.546 1.054-2.817.301-3.41-.96-.756-2.26-.399-2.862.148-1.055.958-2.712.836-3.465.741-1.206-.152-2.439-.866-3.767-1.927-1.305-1.041-2.357-2.223-3.314-3.409a10.53 10.53 0 01-.68-.99c-.127-.201-.24-.381-.337-.51l-.023-.03a14.66 14.66 0 00-.31-.409 3.691 3.691 0 00-.237-.275l-.003-.002c-.04-.041-.193-.2-.42-.35a2.352 2.352 0 00-.175-.107c-1.005-.601-2.126-.637-2.863-.592-.865.053-1.731.254-2.447.468a16.3 16.3 0 00-1.904.7 9.234 9.234 0 00-.75.368c-.782-2.272-.691-5.089-.113-6.423.684-1.577 2.251-2.954 3.6-3.464 2.547-.963 6.659-.699 9.706.091zm9.904 17.578a.922.922 0 01-.928.915.922.922 0 01-.929-.915c0-.506.416-.916.929-.916.512 0 .928.41.928.916z" fill="url(#paint2_radial)"/><path fill-rule="evenodd" clip-rule="evenodd" d="M36.392 5.935c4.7 2.846 5.768 7.016 5.868 8.745.049.839.3 1.58 1.212 1.63.914.051.92-.711.904-.889-.451-5.336-7.294-10.079-7.533-10.227C31.687 1.99 28.42 2.58 26.606 3.595c-.387.217-.814.355-1.24.483a3.01 3.01 0 00-.238.082c-1.446.57-2.168 2.143-1.613 3.514.555 1.372 2.177 2.022 3.623 1.453A2.822 2.822 0 0028.86 7.2l.044-.181c.115-.48.233-.973.605-1.293 2.433-2.099 6.556.01 6.883.208zM25.627 7.77c.636.284 1.387 0 1.678-.633.29-.633.01-1.377-.626-1.661A1.277 1.277 0 0025 6.109c-.29.634-.01 1.378.626 1.661zm18.233 7.494a.461.461 0 01-.464.458.461.461 0 01-.464-.458c0-.253.208-.458.464-.458s.464.205.464.458z" fill="url(#paint3_radial)"/><path fill-rule="evenodd" clip-rule="evenodd" d="M35.981 27.284c.078.01.156.02.233.028 1.061.183 1.216 1.008 1.151 1.44.012.113.01.234-.003.363l-.348 3.548-.348 3.892c-.114 1.683-3.684 1.166-4.808.93-5.938-.888-11.973-4.458-15.988-8.587-1.186-1.22-3.042-3.56-4.204-5.636-.127-.225-.25-.477-.377-.732-.513-1.042-1.057-2.144-1.917-1.795l-1.482.482c-.812.343-.918.8-.37 2.045 1.644 3.73 4.085 6.717 6.637 9.103 1.63 1.524 3.215 2.635 4.562 3.329.38.195.813.226 1.243.257.086.006.171.012.256.02a2.4 2.4 0 01.87.248 2.335 2.335 0 011.024 3.167 2.398 2.398 0 01-3.864.534c-.075-.08-.149-.162-.223-.244-.33-.365-.665-.735-1.096-.968-1.941-1.051-3.944-2.531-5.263-3.765l-.193-.18-.596-.554-.001-.001c-2.428-2.248-4.579-4.241-6.82-9.328-.762-1.729-1.735-4.756 0-5.61 2.79-1.373 5.69-2.312 6.735-2.518.113-.022.22-.046.322-.07.948-.214 1.493-.338 2.668 2.028 1.303 2.621 3.27 5.712 4.737 7.22 4.193 4.312 8.703 7.148 13.501 8.112l.006-.005c1.02.183 1.334.114 1.392-.344.058-.457.116-1.373.116-1.717 0-.669-.66-.84-1.338-1.016l-.054-.014a9.802 9.802 0 01-1.276-.458 20.568 20.568 0 01-2.047-.922c-.379-.197-.805-.28-1.227-.362l-.13-.025c-1.21-.239-2.166-1.308-2.166-2.582 0-1.455 1.195-2.633 2.669-2.633.763 0 1.452.316 1.939.823l.035.037.03.033h.002c.243.255.489.513.8.679.175.093.361.188.556.282l.002-.023c.929.458 1.16.572 3.018 1.145.278.069.535.136.771.202.274.056.55.103.823.137l.03.004.011.001zm-6.741-.688c0 .696-.571 1.26-1.276 1.26a1.268 1.268 0 01-1.277-1.26c0-.695.572-1.259 1.277-1.259s1.276.564 1.276 1.26zm-9.57 12.58c.534.23 1.148 0 1.373-.509.224-.51-.027-1.108-.56-1.337-.533-.228-1.147 0-1.372.51-.224.51.027 1.108.56 1.337z" fill="url(#paint4_radial)"/><path d="M37.934 9.462c1.52 1.47 1.976 3.438 1.018 4.396-.957.958-2.965.543-4.485-.926-1.52-1.47-1.975-3.438-1.018-4.396.958-.958 2.966-.544 4.485.926z" fill="url(#paint5_radial)"/><path fill-rule="evenodd" clip-rule="evenodd" d="M7.177 33.966a2.327 2.327 0 00-.058-.148c-.485-1.13-1.782-1.668-2.898-1.202-1.116.466-1.627 1.76-1.142 2.89.15.352.38.646.658.87.068.055.136.109.205.162.273.214.547.428.756.7.056.072.112.144.17.216a29.868 29.868 0 003.552 3.612 23.64 23.64 0 0015.015 5.333c4.04 0 7.841-1.003 11.162-2.77-12.627 4.039-22.532-3.132-26.798-8.261-.267-.322-.398-.722-.528-1.12a10.35 10.35 0 00-.094-.282zM4.9 35.718a1.079 1.079 0 001.27-.834 1.066 1.066 0 00-.846-1.254 1.08 1.08 0 00-1.27.835 1.065 1.065 0 00.846 1.253z" fill="url(#paint6_radial)"/><path fill-rule="evenodd" clip-rule="evenodd" d="M41.707 37.821c-1.282 1.556-1.712 2.061-3.357 3.245-3.883 2.605-9.131 2.362-12.67 1.715a1.776 1.776 0 01-1.28-2.177c.258-.95 1.249-1.513 2.213-1.26 2.678.705 7.59 1.698 11.436.533a9.64 9.64 0 003.658-2.056zm-14.474 3.407c-.078.503-.578.845-1.117.764-.54-.081-.915-.555-.837-1.058.078-.503.578-.845 1.117-.764.54.081.914.554.837 1.057z" fill="url(#paint7_radial)"/><path fill-rule="evenodd" clip-rule="evenodd" d="M2.11 13.545l-.048.138c-3.408 7.582-1.757 13.663-.908 16.531a1.473 1.473 0 001.889.84 1.435 1.435 0 00.854-1.858C2.644 27.28-.051 22.387 1.288 16.46a28.15 28.15 0 01.774-2.776c.14-.31.288-.624.445-.939-.138.264-.27.53-.398.8zm.327 16.829a.807.807 0 00.812-.801.807.807 0 00-.812-.802.807.807 0 00-.813.802c0 .442.364.8.813.8z" fill="url(#paint8_radial)"/><path fill-rule="evenodd" clip-rule="evenodd" d="M20.516 18.756a2.283 2.283 0 013.146.554c.094.134.3.362.602.663.128.127.254.247.377.366l.04.039c.116.111.264.254.377.373a2.199 2.199 0 01-.112 3.143 2.286 2.286 0 01-3.194-.11 5.982 5.982 0 00-.22-.217 29.443 29.443 0 01-.479-.465c-.316-.315-.764-.776-1.1-1.25a2.2 2.2 0 01.563-3.096zm3.848 3.304c0 .672-.553 1.217-1.234 1.217a1.225 1.225 0 01-1.234-1.217c0-.672.553-1.217 1.234-1.217.681 0 1.234.545 1.234 1.217z" fill="url(#paint9_radial)"/><path d="M46.529 19.385c.039 1.87-.928 5.494-5.686 7.44-.071.03-.142.056-.212.083-.636.24-1.203.454-1.412 2.206-.068.569-.348 4.007-.464 5.953l-.001.018c-.035.578-.102 1.693 1.16 1.126 1.51-.676 4.758-2.632 5.803-5.723.154-.458.58-1.831.812-3.205-.812 1.526-2.852 4.376-4.525 5.036l-.055.022c-.54.214-.758.3-.758-.48 0-.343.04-1.265.116-1.716l.01-.054c.107-.64.128-.765.919-1.091 1.663-.687 4.641-3.549 4.641-6.525l-.012-.26c-.035-.837-.085-2.005-.336-2.83z" fill="url(#paint10_radial)"/><defs><radialGradient id="paint0_radial" cx="0" cy="0" r="1" gradientUnits="userSpaceOnUse" gradientTransform="matrix(-5.48765 33.16617 -33.90937 -5.61062 28.926 13.233)"><stop stop-color="#F93322"/><stop offset="1" stop-color="#A90D00"/></radialGradient><radialGradient id="paint1_radial" cx="0" cy="0" r="1" gradientUnits="userSpaceOnUse" gradientTransform="matrix(-5.66535 34.24017 -35.00695 -5.79222 29.42 13.59)"><stop stop-color="#F93322"/><stop offset="1" stop-color="#A90D00"/></radialGradient><radialGradient id="paint2_radial" cx="0" cy="0" r="1" gradientUnits="userSpaceOnUse" gradientTransform="matrix(-5.48765 33.16617 -33.90937 -5.61062 28.927 13.232)"><stop stop-color="#F93322"/><stop offset="1" stop-color="#A90D00"/></radialGradient><radialGradient id="paint3_radial" cx="0" cy="0" r="1" gradientUnits="userSpaceOnUse" gradientTransform="matrix(-5.48765 33.16617 -33.90927 -5.6106 28.927 13.232)"><stop stop-color="#F93322"/><stop offset="1" stop-color="#A90D00"/></radialGradient><radialGradient id="paint4_radial" cx="0" cy="0" r="1" gradientUnits="userSpaceOnUse" gradientTransform="matrix(-5.48765 33.16617 -33.90937 -5.61062 28.926 13.233)"><stop stop-color="#F93322"/><stop offset="1" stop-color="#A90D00"/></radialGradient><radialGradient id="paint5_radial" cx="0" cy="0" r="1" gradientUnits="userSpaceOnUse" gradientTransform="matrix(-5.48775 33.16606 -33.90925 -5.61072 28.926 13.233)"><stop stop-color="#F93322"/><stop offset="1" stop-color="#A90D00"/></radialGradient><radialGradient id="paint6_radial" cx="0" cy="0" r="1" gradientUnits="userSpaceOnUse" gradientTransform="rotate(99.395 8.852 18.883) scale(33.617 34.3704)"><stop stop-color="#F93322"/><stop offset="1" stop-color="#A90D00"/></radialGradient><radialGradient id="paint7_radial" cx="0" cy="0" r="1" gradientUnits="userSpaceOnUse" gradientTransform="rotate(99.395 8.852 18.883) scale(33.617 34.3704)"><stop stop-color="#F93322"/><stop offset="1" stop-color="#A90D00"/></radialGradient><radialGradient id="paint8_radial" cx="0" cy="0" r="1" gradientUnits="userSpaceOnUse" gradientTransform="rotate(99.395 8.851 18.883) scale(33.617 34.3704)"><stop stop-color="#F93322"/><stop offset="1" stop-color="#A90D00"/></radialGradient><radialGradient id="paint9_radial" cx="0" cy="0" r="1" gradientUnits="userSpaceOnUse" gradientTransform="rotate(99.395 8.851 18.883) scale(33.617 34.3704)"><stop stop-color="#F93322"/><stop offset="1" stop-color="#A90D00"/></radialGradient><radialGradient id="paint10_radial" cx="0" cy="0" r="1" gradientUnits="userSpaceOnUse" gradientTransform="rotate(99.395 8.852 18.883) scale(33.617 34.3704)"><stop stop-color="#F93322"/><stop offset="1" stop-color="#A90D00"/></radialGradient></defs></svg>